<svg width="65" height="58" viewBox="0 0 65 58" fill="none" xmlns="http://www.w3.org/2000/svg">
<path d="M50.2666 57.5889C61.8463 54.3533 69.6143 16.4404 60.9948 11.9511C56.7708 9.75111 43.0284 12.143 30.4818 16.332L34.2282 53.4561C40.6656 56.685 46.6963 58.5864 50.2666 57.5889Z" fill="white"/>
<path d="M22.1377 19.4768L25.0326 48.1461C26.8196 49.3071 28.6512 50.422 30.4819 51.4561L27.3686 17.418C25.5687 18.0735 23.8138 18.7627 22.1377 19.4768Z" fill="white"/>
<path d="M18.5617 21.0983C12.2948 24.1315 7.74428 27.4673 7.18328 30.5127C6.67544 33.2696 12.4551 39.1408 20.0943 44.7385L18.5617 21.0983Z" fill="white"/>
<path d="M20.0558 1.64394C17.6528 2.15108 18.9957 12.3437 20.0558 16.0557C21.9674 16.0557 27.7487 6.62378 27.4253 4.77089C27.1018 2.91799 23.0596 1.01001 20.0558 1.64394Z" fill="white"/>
<path d="M6.97424 3.79468C8.58991 2.70187 12.0403 12.707 13.5636 17.8461C12.774 18.1648 1.78298 12.3171 1.49192 10.231C1.20085 8.14482 4.95465 5.16069 6.97424 3.79468Z" fill="white"/>
</svg>
